<svg fill="none" width="95px" height="60px" xmlns="http://www.w3.org/2000/svg">
<g clip-path="url(#clip0)">
<path d="M8.5006 41.5834C7.71866 41.5834 7.08398 41.9564 7.08398 42.4161V44.0816C7.08398 44.5412 7.71866 44.9143 8.5006 44.9143C9.28253 44.9143 9.91721 44.5412 9.91721 44.0816V42.4161C9.91721 41.9564 9.28253 41.5834 8.5006 41.5834Z" fill="#FFBC6B"/>
<path d="M8.5006 46.5798C7.71866 46.5798 7.08398 46.9529 7.08398 47.4125V49.0781C7.08398 49.5377 7.71866 49.9108 8.5006 49.9108C9.28253 49.9108 9.91721 49.5377 9.91721 49.0781V47.4125C9.91721 46.9529 9.28253 46.5798 8.5006 46.5798Z" fill="#FFBC6B"/>
<path d="M8.5006 36.5868C7.71866 36.5868 7.08398 36.9599 7.08398 37.4195V39.085C7.08398 39.5446 7.71866 39.9177 8.5006 39.9177C9.28253 39.9177 9.91721 39.5446 9.91721 39.085V37.4195C9.91721 36.9599 9.28253 36.5868 8.5006 36.5868Z" fill="#FFBC6B"/>
<path d="M14.1676 41.5834C13.3857 41.5834 12.751 41.9564 12.751 42.4161V44.0816C12.751 44.5412 13.3857 44.9143 14.1676 44.9143C14.9495 44.9143 15.5842 44.5412 15.5842 44.0816V42.4161C15.5844 41.9564 14.9497 41.5834 14.1676 41.5834Z" fill="#FFBC6B"/>
<path d="M14.1676 36.5868C13.3857 36.5868 12.751 36.9599 12.751 37.4195V39.085C12.751 39.5446 13.3857 39.9177 14.1676 39.9177C14.9495 39.9177 15.5842 39.5446 15.5842 39.085V37.4195C15.5844 36.9599 14.9497 36.5868 14.1676 36.5868Z" fill="#FFBC6B"/>
<path d="M14.1676 46.5798C13.3857 46.5798 12.751 46.9529 12.751 47.4125V49.0781C12.751 49.5377 13.3857 49.9108 14.1676 49.9108C14.9495 49.9108 15.5842 49.5377 15.5842 49.0781V47.4125C15.5844 46.9529 14.9497 46.5798 14.1676 46.5798Z" fill="#FFBC6B"/>
<path d="M82.1676 14.1028H79.3343V11.6046C79.3343 11.1449 78.6996 10.7719 77.9176 10.7719H69.4176C68.6357 10.7719 68.001 11.1449 68.001 11.6046V14.1028H65.1676C64.3857 14.1028 63.751 14.4759 63.751 14.9355V28.2593H62.3344V25.7611C62.3344 25.3014 61.6997 24.9284 60.9178 24.9284H59.501V24.0957C59.501 23.636 58.8664 23.263 58.0844 23.263C57.3025 23.263 56.6678 23.636 56.6678 24.0957V24.9284H55.251C54.4691 24.9284 53.8344 25.3014 53.8344 25.7611V28.2593H49.5844V11.6046C49.5844 11.1449 48.9497 10.7719 48.1678 10.7719H43.9178V5.77543C43.9176 5.3157 43.283 4.94263 42.501 4.94263H25.501C24.7191 4.94263 24.0844 5.3157 24.0844 5.77533V10.7718H19.8344C19.0525 10.7718 18.4178 11.1448 18.4178 11.6045V33.2557H15.5844V30.7575C15.5844 30.2979 14.9497 29.9248 14.1678 29.9248H5.6678C4.88587 29.9248 4.25119 30.2979 4.25119 30.7575V33.2557H2.83458C2.05265 33.2557 1.41797 33.6288 1.41797 34.0884V54.0742C1.41797 54.5338 2.05265 54.9069 2.83458 54.9069H19.8346H31.168H65.168H82.168C82.9499 54.9069 83.5846 54.5338 83.5846 54.0742V14.9355C83.5844 14.4759 82.9497 14.1028 82.1676 14.1028ZM41.0844 14.9355C41.0844 14.4759 41.7191 14.1028 42.501 14.1028C43.283 14.1028 43.9176 14.4759 43.9176 14.9355V28.2593H41.0843V14.9355H41.0844ZM35.4176 9.10636C35.4176 8.64672 36.0523 8.27365 36.8343 8.27365C37.6162 8.27365 38.2509 8.64672 38.2509 9.10636V11.6046C38.2509 12.0642 37.6162 12.4373 36.8343 12.4373C36.0523 12.4373 35.4176 12.0642 35.4176 11.6046V9.10636ZM35.4176 14.9355C35.4176 14.4759 36.0523 14.1028 36.8343 14.1028C37.6162 14.1028 38.2509 14.4759 38.2509 14.9355V28.2593H35.4175V14.9355H35.4176ZM29.751 9.10636C29.751 8.64672 30.3857 8.27365 31.1676 8.27365C31.9496 8.27365 32.5843 8.64672 32.5843 9.10636V11.6046C32.5843 12.0642 31.9496 12.4373 31.1676 12.4373C30.3857 12.4373 29.751 12.0642 29.751 11.6046V9.10636ZM24.0844 14.9355C24.0844 14.4759 24.7191 14.1028 25.501 14.1028C26.283 14.1028 26.9176 14.4759 26.9176 14.9355V33.2557H24.0842V14.9355H24.0844ZM29.751 51.5761H25.501C24.7191 51.5761 24.0844 51.203 24.0844 50.7434C24.0844 50.2837 24.7191 49.9106 25.501 49.9106H29.751V51.5761ZM29.751 48.245H25.501C24.7191 48.245 24.0844 47.872 24.0844 47.4123C24.0844 46.9527 24.7191 46.5796 25.501 46.5796H29.751V48.245ZM29.751 44.9141H25.501C24.7191 44.9141 24.0844 44.541 24.0844 44.0814C24.0844 43.6218 24.7191 43.2487 25.501 43.2487H29.751V44.9141ZM29.751 41.5832H25.501C24.7191 41.5832 24.0844 41.2101 24.0844 40.7505C24.0844 40.2908 24.7191 39.9178 25.501 39.9178H29.751V41.5832ZM29.751 36.5867H19.8344C19.0525 36.5867 18.4178 36.9598 18.4178 37.4195V53.2415H4.25103V34.9212H5.66764H14.1676H19.8342H25.501H29.751V36.5867ZM29.751 29.0921V14.9355C29.751 14.4759 30.3857 14.1028 31.1676 14.1028C31.9496 14.1028 32.5843 14.4759 32.5843 14.9355V28.2593H31.1676C30.3857 28.2593 29.751 28.6324 29.751 29.0921ZM63.751 53.2415H60.9176V32.423C60.9176 31.9634 60.283 31.5903 59.501 31.5903C58.7191 31.5903 58.0844 31.9634 58.0844 32.423V53.2415H55.251V32.423C55.251 31.9634 54.6164 31.5903 53.8344 31.5903C53.0525 31.5903 52.4178 31.9634 52.4178 32.423V53.2415H49.5844V32.423C49.5844 31.9634 48.9497 31.5903 48.1678 31.5903C47.3859 31.5903 46.7512 31.9634 46.7512 32.423V53.2415H43.9178V32.423C43.9178 31.9634 43.2831 31.5903 42.5012 31.5903C41.7193 31.5903 41.0846 31.9634 41.0846 32.423V53.2415H38.251V32.423C38.251 31.9634 37.6164 31.5903 36.8344 31.5903C36.0525 31.5903 35.4178 31.9634 35.4178 32.423V53.2415H32.5844V50.7433V47.4123V44.0814V40.7505V37.4195V34.0885V29.9248H36.8344H42.501H48.1676H55.251H60.9176H63.751V53.2415ZM72.251 50.0729C72.251 50.5326 71.6163 50.9056 70.8344 50.9056C70.0525 50.9056 69.4178 50.5326 69.4178 50.0729V48.4074C69.4178 47.9478 70.0525 47.5747 70.8344 47.5747C71.6163 47.5747 72.251 47.9478 72.251 48.4074V50.0729ZM72.251 45.0765C72.251 45.5361 71.6163 45.9092 70.8344 45.9092C70.0525 45.9092 69.4178 45.5361 69.4178 45.0765V43.411C69.4178 42.9513 70.0525 42.5783 70.8344 42.5783C71.6163 42.5783 72.251 42.9513 72.251 43.411V45.0765ZM72.251 40.0801C72.251 40.5397 71.6163 40.9128 70.8344 40.9128C70.0525 40.9128 69.4178 40.5397 69.4178 40.0801V38.4145C69.4178 37.9549 70.0525 37.5818 70.8344 37.5818C71.6163 37.5818 72.251 37.9549 72.251 38.4145V40.0801ZM72.251 35.0836C72.251 35.5433 71.6163 35.9163 70.8344 35.9163C70.0525 35.9163 69.4178 35.5433 69.4178 35.0836V33.4181C69.4178 32.9585 70.0525 32.5854 70.8344 32.5854C71.6163 32.5854 72.251 32.9585 72.251 33.4181V35.0836ZM72.251 30.0872C72.251 30.5468 71.6163 30.9199 70.8344 30.9199C70.0525 30.9199 69.4178 30.5468 69.4178 30.0872V28.4217C69.4178 27.962 70.0525 27.589 70.8344 27.589C71.6163 27.589 72.251 27.962 72.251 28.4217V30.0872ZM72.251 25.0908C72.251 25.5504 71.6163 25.9235 70.8344 25.9235C70.0525 25.9235 69.4178 25.5504 69.4178 25.0908V23.4252C69.4178 22.9656 70.0525 22.5925 70.8344 22.5925C71.6163 22.5925 72.251 22.9656 72.251 23.4252V25.0908ZM72.251 20.0943C72.251 20.554 71.6163 20.927 70.8344 20.927C70.0525 20.927 69.4178 20.554 69.4178 20.0943V18.4288C69.4178 17.9692 70.0525 17.5961 70.8344 17.5961C71.6163 17.5961 72.251 17.9692 72.251 18.4288V20.0943ZM77.9176 50.0729C77.9176 50.5326 77.283 50.9056 76.501 50.9056C75.7191 50.9056 75.0844 50.5326 75.0844 50.0729V48.4074C75.0844 47.9478 75.7191 47.5747 76.501 47.5747C77.283 47.5747 77.9176 47.9478 77.9176 48.4074V50.0729ZM77.9176 45.0765C77.9176 45.5361 77.283 45.9092 76.501 45.9092C75.7191 45.9092 75.0844 45.5361 75.0844 45.0765V43.411C75.0844 42.9513 75.7191 42.5783 76.501 42.5783C77.283 42.5783 77.9176 42.9513 77.9176 43.411V45.0765ZM77.9176 40.0801C77.9176 40.5397 77.283 40.9128 76.501 40.9128C75.7191 40.9128 75.0844 40.5397 75.0844 40.0801V38.4145C75.0844 37.9549 75.7191 37.5818 76.501 37.5818C77.283 37.5818 77.9176 37.9549 77.9176 38.4145V40.0801ZM77.9176 35.0836C77.9176 35.5433 77.283 35.9163 76.501 35.9163C75.7191 35.9163 75.0844 35.5433 75.0844 35.0836V33.4181C75.0844 32.9585 75.7191 32.5854 76.501 32.5854C77.283 32.5854 77.9176 32.9585 77.9176 33.4181V35.0836ZM77.9176 30.0872C77.9176 30.5468 77.283 30.9199 76.501 30.9199C75.7191 30.9199 75.0844 30.5468 75.0844 30.0872V28.4217C75.0844 27.962 75.7191 27.589 76.501 27.589C77.283 27.589 77.9176 27.962 77.9176 28.4217V30.0872ZM77.9176 25.0908C77.9176 25.5504 77.283 25.9235 76.501 25.9235C75.7191 25.9235 75.0844 25.5504 75.0844 25.0908V23.4252C75.0844 22.9656 75.7191 22.5925 76.501 22.5925C77.283 22.5925 77.9176 22.9656 77.9176 23.4252V25.0908ZM77.9176 20.0943C77.9176 20.554 77.283 20.927 76.501 20.927C75.7191 20.927 75.0844 20.554 75.0844 20.0943V18.4288C75.0844 17.9692 75.7191 17.5961 76.501 17.5961C77.283 17.5961 77.9176 17.9692 77.9176 18.4288V20.0943Z" fill="#FFBC6B"/>
</g>
</svg>
