<svg width="249" height="82" viewBox="0 0 249 82" fill="none" xmlns="http://www.w3.org/2000/svg">
<path d="M14.24 43.12C13.88 43.5333 13.4933 43.8267 13.08 44C12.6667 44.1867 12.1667 44.28 11.58 44.28C10.8067 44.28 10.1933 44.12 9.74 43.8C9.3 43.4667 9.01333 42.9067 8.88 42.12L8.52 40.12C8.34667 39.1467 8.13333 38.4333 7.88 37.98C7.64 37.5133 7.23333 37.28 6.66 37.28H5.36V41.88C5.36 42.3867 5.39333 42.7533 5.46 42.98C5.54 43.2067 5.68 43.36 5.88 43.44C6.08 43.52 6.40667 43.5733 6.86 43.6V44C6.14 43.96 5.13333 43.94 3.84 43.94C2.41333 43.94 1.36 43.96 0.68 44V43.6C1.12 43.5733 1.44 43.52 1.64 43.44C1.85333 43.36 1.99333 43.2067 2.06 42.98C2.14 42.7533 2.18 42.3867 2.18 41.88V31.96C2.18 31.4533 2.14 31.0867 2.06 30.86C1.99333 30.6333 1.85333 30.48 1.64 30.4C1.44 30.32 1.12 30.2667 0.68 30.24V29.84C1.36 29.88 2.37333 29.9 3.72 29.9L5.94 29.88C6.20667 29.8667 6.51333 29.86 6.86 29.86C8.7 29.86 10.08 30.16 11 30.76C11.9333 31.36 12.4 32.22 12.4 33.34C12.4 34.2867 12.0533 35.12 11.36 35.84C10.6667 36.56 9.52 37.0133 7.92 37.2C9.12 37.3067 10.0133 37.5667 10.6 37.98C11.1867 38.3933 11.5667 39.0133 11.74 39.84L12.2 41.9C12.3067 42.4333 12.4267 42.8067 12.56 43.02C12.7067 43.2333 12.9067 43.34 13.16 43.34C13.32 43.3267 13.4533 43.2867 13.56 43.22C13.68 43.1533 13.8133 43.04 13.96 42.88L14.24 43.12ZM6.6 30.24C6.24 30.24 5.97333 30.2867 5.8 30.38C5.64 30.4733 5.52667 30.64 5.46 30.88C5.39333 31.12 5.36 31.48 5.36 31.96V36.88H6.22C7.31333 36.88 8.06 36.5933 8.46 36.02C8.87333 35.4333 9.08 34.6133 9.08 33.56C9.08 32.4667 8.88667 31.64 8.5 31.08C8.11333 30.52 7.48 30.24 6.6 30.24ZM25.4877 40.96C25.4877 42.1867 25.5343 43.2 25.6277 44C24.721 43.96 23.1943 43.94 21.0477 43.94C18.141 43.94 15.9677 43.96 14.5277 44V43.6C14.9677 43.5733 15.2877 43.52 15.4877 43.44C15.701 43.36 15.841 43.2067 15.9077 42.98C15.9877 42.7533 16.0277 42.3867 16.0277 41.88V31.96C16.0277 31.4533 15.9877 31.0867 15.9077 30.86C15.841 30.6333 15.701 30.48 15.4877 30.4C15.2877 30.32 14.9677 30.2667 14.5277 30.24V29.84C15.9677 29.88 18.141 29.9 21.0477 29.9C23.0077 29.9 24.401 29.88 25.2277 29.84C25.1343 30.9467 25.0877 31.9333 25.0877 32.8C25.0877 33.3867 25.1077 33.84 25.1477 34.16H24.6877C24.4877 32.7333 24.1277 31.7333 23.6077 31.16C23.0877 30.5867 22.3543 30.3 21.4077 30.3H20.5877C20.1743 30.3 19.8743 30.3333 19.6877 30.4C19.501 30.4667 19.3743 30.6 19.3077 30.8C19.241 30.9867 19.2077 31.2933 19.2077 31.72V36.68H19.8477C20.5543 36.68 21.0877 36.42 21.4477 35.9C21.821 35.38 22.081 34.76 22.2277 34.04H22.6877C22.6477 34.6 22.6277 35.2267 22.6277 35.92V36.88C22.6277 37.56 22.6677 38.5067 22.7477 39.72H22.2877C22.0077 37.96 21.1943 37.08 19.8477 37.08H19.2077V42.12C19.2077 42.5467 19.241 42.86 19.3077 43.06C19.3743 43.2467 19.501 43.3733 19.6877 43.44C19.8743 43.5067 20.1743 43.54 20.5877 43.54H21.5677C22.5143 43.54 23.2743 43.22 23.8477 42.58C24.4343 41.9267 24.8477 40.8267 25.0877 39.28H25.5477C25.5077 39.72 25.4877 40.28 25.4877 40.96ZM38.7434 42.32C38.9168 42.76 39.1168 43.08 39.3434 43.28C39.5701 43.48 39.7901 43.5867 40.0034 43.6V44C39.2034 43.96 38.1901 43.94 36.9634 43.94C35.6034 43.94 34.5901 43.96 33.9234 44V43.6C34.4301 43.5733 34.7901 43.5133 35.0034 43.42C35.2168 43.3133 35.3234 43.1333 35.3234 42.88C35.3234 42.64 35.2434 42.32 35.0834 41.92L33.8834 38.64H29.5234L29.0034 40.02C28.6301 40.98 28.4434 41.72 28.4434 42.24C28.4434 42.7333 28.5901 43.08 28.8834 43.28C29.1901 43.4667 29.6368 43.5733 30.2234 43.6V44C29.3168 43.96 28.4901 43.94 27.7434 43.94C27.1301 43.94 26.6234 43.96 26.2234 44V43.6C26.8768 43.48 27.4501 42.78 27.9434 41.5L32.5034 29.8C32.6501 29.8133 32.8834 29.82 33.2034 29.82C33.5234 29.82 33.7501 29.8133 33.8834 29.8L38.7434 42.32ZM33.7434 38.24L31.7634 32.84L29.6834 38.24H33.7434ZM46.3327 29.84C48.9327 29.84 50.8793 30.4333 52.1727 31.62C53.466 32.7933 54.1127 34.5067 54.1127 36.76C54.1127 38.2133 53.7927 39.4867 53.1527 40.58C52.526 41.66 51.6127 42.5 50.4127 43.1C49.226 43.7 47.806 44 46.1527 44L44.9127 43.98C44.1393 43.9533 43.5793 43.94 43.2327 43.94C41.8593 43.94 40.8327 43.96 40.1527 44V43.6C40.5927 43.5733 40.9127 43.52 41.1127 43.44C41.326 43.36 41.466 43.2067 41.5327 42.98C41.6127 42.7533 41.6527 42.3867 41.6527 41.88V31.96C41.6527 31.4533 41.6127 31.0867 41.5327 30.86C41.466 30.6333 41.326 30.48 41.1127 30.4C40.9127 30.32 40.5927 30.2667 40.1527 30.24V29.84C40.7127 29.88 41.5193 29.9 42.5727 29.9H43.1927L43.9927 29.88C45.086 29.8533 45.866 29.84 46.3327 29.84ZM46.3127 30.2C45.8993 30.2 45.586 30.2467 45.3727 30.34C45.1727 30.4333 45.0327 30.6 44.9527 30.84C44.8727 31.08 44.8327 31.44 44.8327 31.92V41.92C44.8327 42.4 44.8727 42.76 44.9527 43C45.0327 43.24 45.1727 43.4067 45.3727 43.5C45.586 43.5933 45.906 43.64 46.3327 43.64C47.946 43.64 49.0927 43.08 49.7727 41.96C50.4527 40.8267 50.7927 39.12 50.7927 36.84C50.7927 34.56 50.4393 32.8867 49.7327 31.82C49.0393 30.74 47.8993 30.2 46.3127 30.2ZM77.548 30.24C77.0946 30.2667 76.768 30.32 76.568 30.4C76.368 30.48 76.228 30.6333 76.148 30.86C76.0813 31.0867 76.048 31.4533 76.048 31.96V41.88C76.048 42.3867 76.0813 42.7533 76.148 42.98C76.228 43.2067 76.368 43.36 76.568 43.44C76.7813 43.52 77.108 43.5733 77.548 43.6V44C76.8146 43.96 75.768 43.94 74.408 43.94C72.9813 43.94 71.928 43.96 71.248 44V43.6C71.728 43.5733 72.0746 43.52 72.288 43.44C72.5146 43.36 72.668 43.2067 72.748 42.98C72.828 42.7533 72.868 42.3867 72.868 41.88V31.42L68.048 44.02H67.728L62.328 31.14V40.72C62.328 41.5067 62.368 42.0867 62.448 42.46C62.528 42.82 62.7013 43.0867 62.968 43.26C63.2346 43.42 63.668 43.5333 64.268 43.6V44C63.748 43.96 63.028 43.94 62.108 43.94C61.3746 43.94 60.7946 43.96 60.368 44V43.6C60.808 43.5333 61.128 43.42 61.328 43.26C61.5413 43.1 61.6813 42.8467 61.748 42.5C61.828 42.1533 61.868 41.64 61.868 40.96V31.96C61.868 31.4533 61.828 31.0867 61.748 30.86C61.6813 30.6333 61.5413 30.48 61.328 30.4C61.128 30.32 60.808 30.2667 60.368 30.24V29.84C60.7946 29.88 61.3746 29.9 62.108 29.9C63.3346 29.9 64.388 29.88 65.268 29.84L69.308 39.58L72.988 29.9H74.408C75.768 29.9 76.8146 29.88 77.548 29.84V30.24ZM85.9869 29.56C87.4002 29.56 88.6335 29.8467 89.6869 30.42C90.7535 30.9933 91.5802 31.8267 92.1669 32.92C92.7535 34 93.0469 35.2933 93.0469 36.8C93.0469 38.2667 92.7469 39.5667 92.1469 40.7C91.5469 41.8333 90.7069 42.7133 89.6269 43.34C88.5602 43.9667 87.3402 44.28 85.9669 44.28C84.5535 44.28 83.3135 43.9933 82.2469 43.42C81.1935 42.8467 80.3735 42.02 79.7869 40.94C79.2002 39.8467 78.9069 38.5467 78.9069 37.04C78.9069 35.5733 79.2069 34.2733 79.8069 33.14C80.4069 32.0067 81.2402 31.1267 82.3069 30.5C83.3869 29.8733 84.6135 29.56 85.9869 29.56ZM85.9069 29.92C85.1735 29.92 84.5269 30.22 83.9669 30.82C83.4069 31.4067 82.9735 32.2333 82.6669 33.3C82.3735 34.3667 82.2269 35.5867 82.2269 36.96C82.2269 38.3467 82.3935 39.5667 82.7269 40.62C83.0735 41.6733 83.5335 42.4867 84.1069 43.06C84.6935 43.6333 85.3402 43.92 86.0469 43.92C86.7802 43.92 87.4269 43.6267 87.9869 43.04C88.5469 42.44 88.9735 41.6067 89.2669 40.54C89.5735 39.4733 89.7269 38.2533 89.7269 36.88C89.7269 35.4933 89.5535 34.2733 89.2069 33.22C88.8735 32.1667 88.4135 31.3533 87.8269 30.78C87.2535 30.2067 86.6135 29.92 85.9069 29.92ZM107.99 43.12C107.63 43.5333 107.243 43.8267 106.83 44C106.417 44.1867 105.917 44.28 105.33 44.28C104.557 44.28 103.943 44.12 103.49 43.8C103.05 43.4667 102.763 42.9067 102.63 42.12L102.27 40.12C102.097 39.1467 101.883 38.4333 101.63 37.98C101.39 37.5133 100.983 37.28 100.41 37.28H99.11V41.88C99.11 42.3867 99.1433 42.7533 99.21 42.98C99.29 43.2067 99.43 43.36 99.63 43.44C99.83 43.52 100.157 43.5733 100.61 43.6V44C99.89 43.96 98.8833 43.94 97.59 43.94C96.1633 43.94 95.11 43.96 94.43 44V43.6C94.87 43.5733 95.19 43.52 95.39 43.44C95.6033 43.36 95.7433 43.2067 95.81 42.98C95.89 42.7533 95.93 42.3867 95.93 41.88V31.96C95.93 31.4533 95.89 31.0867 95.81 30.86C95.7433 30.6333 95.6033 30.48 95.39 30.4C95.19 30.32 94.87 30.2667 94.43 30.24V29.84C95.11 29.88 96.1233 29.9 97.47 29.9L99.69 29.88C99.9567 29.8667 100.263 29.86 100.61 29.86C102.45 29.86 103.83 30.16 104.75 30.76C105.683 31.36 106.15 32.22 106.15 33.34C106.15 34.2867 105.803 35.12 105.11 35.84C104.417 36.56 103.27 37.0133 101.67 37.2C102.87 37.3067 103.763 37.5667 104.35 37.98C104.937 38.3933 105.317 39.0133 105.49 39.84L105.95 41.9C106.057 42.4333 106.177 42.8067 106.31 43.02C106.457 43.2333 106.657 43.34 106.91 43.34C107.07 43.3267 107.203 43.2867 107.31 43.22C107.43 43.1533 107.563 43.04 107.71 42.88L107.99 43.12ZM100.35 30.24C99.99 30.24 99.7233 30.2867 99.55 30.38C99.39 30.4733 99.2767 30.64 99.21 30.88C99.1433 31.12 99.11 31.48 99.11 31.96V36.88H99.97C101.063 36.88 101.81 36.5933 102.21 36.02C102.623 35.4333 102.83 34.6133 102.83 33.56C102.83 32.4667 102.637 31.64 102.25 31.08C101.863 30.52 101.23 30.24 100.35 30.24ZM119.238 40.96C119.238 42.1867 119.284 43.2 119.378 44C118.471 43.96 116.944 43.94 114.798 43.94C111.891 43.94 109.718 43.96 108.278 44V43.6C108.718 43.5733 109.038 43.52 109.238 43.44C109.451 43.36 109.591 43.2067 109.658 42.98C109.738 42.7533 109.778 42.3867 109.778 41.88V31.96C109.778 31.4533 109.738 31.0867 109.658 30.86C109.591 30.6333 109.451 30.48 109.238 30.4C109.038 30.32 108.718 30.2667 108.278 30.24V29.84C109.718 29.88 111.891 29.9 114.798 29.9C116.758 29.9 118.151 29.88 118.978 29.84C118.884 30.9467 118.838 31.9333 118.838 32.8C118.838 33.3867 118.858 33.84 118.898 34.16H118.438C118.238 32.7333 117.878 31.7333 117.358 31.16C116.838 30.5867 116.104 30.3 115.158 30.3H114.338C113.924 30.3 113.624 30.3333 113.438 30.4C113.251 30.4667 113.124 30.6 113.058 30.8C112.991 30.9867 112.958 31.2933 112.958 31.72V36.68H113.598C114.304 36.68 114.838 36.42 115.198 35.9C115.571 35.38 115.831 34.76 115.978 34.04H116.438C116.398 34.6 116.378 35.2267 116.378 35.92V36.88C116.378 37.56 116.418 38.5067 116.498 39.72H116.038C115.758 37.96 114.944 37.08 113.598 37.08H112.958V42.12C112.958 42.5467 112.991 42.86 113.058 43.06C113.124 43.2467 113.251 43.3733 113.438 43.44C113.624 43.5067 113.924 43.54 114.338 43.54H115.318C116.264 43.54 117.024 43.22 117.598 42.58C118.184 41.9267 118.598 40.8267 118.838 39.28H119.298C119.258 39.72 119.238 40.28 119.238 40.96Z" fill="#B8121A"/>
<path d="M30 21V1H207V81H30V61" stroke="#B8121A" stroke-width="2"/>
<path d="M84.7071 59.7071C85.0976 59.3166 85.0976 58.6834 84.7071 58.2929L78.3431 51.9289C77.9526 51.5384 77.3195 51.5384 76.9289 51.9289C76.5384 52.3195 76.5384 52.9526 76.9289 53.3431L82.5858 59L76.9289 64.6569C76.5384 65.0474 76.5384 65.6805 76.9289 66.0711C77.3195 66.4616 77.9526 66.4616 78.3431 66.0711L84.7071 59.7071ZM44 60H84V58H44V60Z" fill="#B8121A"/>
</svg>
